<?xml version="1.0" encoding="UTF-8"?>
<svg width="611.96" height="256.63" version="1.1" viewBox="0 0 161.91 67.901" xmlns="http://www.w3.org/2000/svg">
 <g transform="translate(15.861 -84.86)">
  <path d="m18.079 88.585-7.5378 0.15565-0.17813 0.01322c-2.637 0.19903-4.3494 2.3428-4.3679 4.7103l-6.4e-4 0.06015 0.14508 6.1693-2.9845 0.07103-0.41607-5.5127c-0.19905-2.637-2.4279-4.554-5.0649-4.355l-7.4754 0.56412c-2.637 0.19903-4.5527 2.4292-4.3537 5.0662l2.1702 28.757c0.19902 2.637 2.4278 4.554 5.0649 4.355l7.4754-0.56412c2.637-0.19903 4.5527-2.4292 4.3537-5.0662l-0.55256-7.322 2.1623-0.0617 0.13781 6.8864 0.00795 0.10575c0.1732 2.2949 2.0133 4.165 4.2962 4.3834-0.1605 0.41332-0.28286 0.84287-0.36452 1.2816-0.80531 0.0366-1.6175 0.0967-2.3986 0.15797-0.70428 0.0552-1.3361 0.12015-1.8219 0.17317l-0.088237 0.0105-0.087906 0.0132c-0.77521 0.12114-1.536 0.4236-2.2525 1.0866-0.19889 0.18403-0.3904 0.4079-0.56313 0.66128-1.0246-1.2662-2.6865-1.7396-4.0847-1.4686l-0.010245 2e-3 -0.009915 2e-3c-1.5811 0.3147-3.3435 0.92875-4.9591 1.5076-0.66505 0.23829-1.2567 0.46603-1.7115 0.64476l-0.082619 0.0324-0.080967 0.037c-0.71623 0.32048-1.3714 0.81061-1.8887 1.6385-0.51725 0.8279-0.80489 2.1309-0.48646 3.2939l0.56577 2.1564 0.066095 0.1844c0.29465 0.82237 0.83233 1.4446 1.462 1.9323-0.20528 0.60338-0.32707 1.2277-0.22538 1.8414l0.31098 2.2674 0.13021 0.36319c0.012952 0.0411 4.128e-4 0.0423 0.015202 0.0836 0.64885 1.811 1.7846 2.1934 2.3765 2.4402 0.59186 0.2468 1.0103 0.32099 1.4234 0.38435 0.82618 0.12672 1.6059 0.13812 2.4792 0.0988 1.7466-0.0787 3.7799-0.39235 5.8355-1.1289 0.49451-0.17719 0.92759-0.2846 1.6983-0.7439 0.011253-7e-3 0.022515-0.0133 0.034045-0.0202 0.50645 0.17591 1.0243 0.31262 1.5869 0.43887 1.2027 0.26988 2.5737 0.46496 4.0407 0.49671 0.14818 0.76505 0.55421 1.5504 0.95739 2.011 0.37404 0.42728 0.68879 0.63549 0.68574 0.63154 4.3681 3.4094 9.6971 4.0109 13.223 0.92434 0.56856-0.49773 1.0621-1.1162 1.4455-1.809l0.4012 1.2062 0.02115 0.0578c0.79217 2.1504 3.2488 3.2962 5.32 2.7234l0.10113-0.0278 5.0292-1.6937c2.37e-4 -7e-5 4.24e-4 -2.6e-4 6.4e-4 -3.3e-4l0.05023-0.0169-0.03536 0.011c1.2349-0.40674 2.0881-1.4289 2.5599-2.5738 0.98755 0.29417 2.0285 0.59394 2.6108 0.77992 0.74031 0.24385 1.582 0.39463 2.6947 0.0869 1.7321-0.47903 2.7895-2.1098 3.1091-2.9617l0.01586-0.0446 0.09485-0.27297c2.1777 1.9376 5.0559 3.078 8.0259 3.078 2.8442 0 5.707-0.95356 8.1925-2.8616 0.11626-0.0892 0.23171-0.1815 0.34601-0.27627 0.24786 2.2284 2.2762 3.9297 4.3894 3.9297h0.10608l5.2922-0.29148c4.42e-4 -2e-5 6.41e-4 1e-5 0.0013 0l0.05749-3e-3 -0.03965 2e-3c1.3004-0.0615 2.3964-0.81978 3.157-1.7984 0.87341 0.54675 1.7967 1.113 2.3084 1.4475 0.64866 0.43247 1.4201 0.80173 2.5744 0.80173 1.7972 0 3.2504-1.29 3.7856-2.0258l0.02778-0.0387 1.5522-2.2515c2.1487 1.8176 4.931 2.8808 7.7989 2.8808 2.8442 0 5.707-0.95456 8.1925-2.8626 0.30021-0.23045 0.59471-0.4796 0.88007-0.74622 0.60386 2.0039 2.7927 3.3468 4.5771 3.2132l0.10575-8e-3 5.2893-0.69168-0.043 4e-3c2.2919-0.26311 4.0289-2.3395 3.8553-4.6577l-0.0115-0.15565-0.11996-0.93029c2.1755 3.3194 6.0218 5.403 10.036 5.403 2.8442 0 5.708-0.9549 8.1935-2.8629 2.4855-1.908 4.5629-5.093 4.5629-8.9493 0-2.6397-0.88573-5.4229-2.9039-7.7602-0.20112-0.23292-0.41513-0.45949-0.64113-0.67846l4.0933-3.5087c2.7023-2.3163 3.0262-6.5262 0.70986-9.2285l-5.5728-6.5021c-1.0918-1.2738-2.6042-2.0187-4.1812-2.2079-8e-3 -0.1209-0.0172-0.24016-0.0264-0.35625-0.0331-0.41525 0.0964-0.72412-0.41474-1.8864-0.22416-0.50964-0.77971-1.199-1.4422-1.6768-0.76826-2.0388-2.0981-3.751-3.7172-4.8332-1.7563-1.174-3.708-1.5922-5.6478-1.7033-0.71856-1.7801-2.4942-2.8058-4.2598-2.665l-3.2621 0.26042c-2.1382 0.17059-3.6839 2.0075-3.8448 3.9981-0.31288 0.16189-0.6417 0.32183-0.86155 0.52579-0.61418 0.56975-0.7507 0.92271-0.80406 1.0116l-0.0585 0.09617-1.5027 2.8728-0.07 0.17449c-0.12952 0.32047-0.38459 1.037-0.31198 1.9472 0.0406 0.50875 0.24472 1.0022 0.52877 1.4597-0.17796 0.0541-0.35684 0.12082-0.53637 0.2006l-0.19266 0.0853-0.15136 0.0836c0.0867-0.0484-2.4624 1.2842-2.4624 1.2842l-0.0419 0.0228-0.0407 0.0224c-0.21291 0.11666-1.0822 0.43053-1.7826 1.7829-0.1679 0.32419-0.13454 0.65678-0.19961 0.99373-0.79409-0.11087-1.6221-0.0678-2.4373 0.29447l-0.0205 9e-3 -2.6666 1.2238c-0.05263-0.12285-0.12448-0.27368-0.22373-0.46366-0.02083-0.0399-0.06744-0.0565-0.08957-0.0955 1.1654-1.2586 2.0283-2.831 2.2264-4.5067 0.20394-1.7246-0.27568-3.3158-0.91376-4.5368-0.47969-0.91784-1.8678-3.4322-4.9006-5.3861-3.0328-1.9539-8.0296-2.7683-13.098-0.11963-3.1905 1.6675-5.5772 3.9276-7.0917 6.4558-1.0159-1.3239-2.2423-2.458-3.6247-3.3514-3.4956-2.259-7.8614-3.0604-12.349-2.4462v-3.33e-4c-1.3447 0.18404-2.6851 0.56575-4.0292 0.99539l-4.0341 0.33246-0.17449 0.02411c-1.207 0.16518-2.1551 0.70251-2.8196 1.4557-0.42205-0.12316-0.84035-0.19269-1.231-0.22274l0.03734 0.0025-6.5537-0.56842h-0.35097c-0.28434 0-0.6728 0.12836-1.0228 0.19465-1.58-0.50404-3.2573-0.85924-5.0698-0.85924-4.217 0-7.7477 1.779-10.108 4.2126l-0.19623-8.6182-0.0076-0.09947c-0.18023-2.3871-2.1097-4.5109-4.8436-4.4046zm77.537 26.147v3.2e-4l-0.0033 2e-3c0.0017-6.4e-4 0.0017-2e-3 0.0033-3e-3zm-31.236 6.0064c0.17303 0.19073 0.34769 0.37641 0.52413 0.55553l-0.56015 0.0595c0.02379-0.20026 0.03607-0.40554 0.036-0.61501zm59.081 2.0546 1.6947 1.9772c-0.9286 0.44733-1.8065 1.015-2.6088 1.7112-0.0107 9e-3 -0.0214 0.0188-0.032 0.0281-0.14124-0.21632-0.30384-0.42344-0.4891-0.61237-0.80719-0.82318-1.7691-1.1561-2.47-1.2879l-0.0724-0.0145-0.0737-0.0109c-0.52009-0.0772-1.0537-0.12951-1.5985-0.15369 0.26725-0.30788 0.51739-0.6446 0.74556-1.0122 0.0228-0.0367 0.0449-0.0736 0.0668-0.11104zm-15.764 3.1997c0.0263 0.0156 0.0528 0.0309 0.0793 0.0463-0.16396 0.0579-0.3218 0.12504-0.47357 0.20061zm-14.999 0.0674c-1.0417 0.4671-2.0245 1.081-2.9141 1.853-0.77704 0.6743-1.4612 1.474-2.0314 2.3712l-0.75877-1.2343-0.0017-2e-3c-0.52795-0.85791-1.6473-1.7161-2.8051-2.0846zm13.913 0.61238c-0.26213 0.20203-0.49757 0.43259-0.70391 0.68474-0.12027-0.0909-0.24316-0.17977-0.36815-0.26669 0.23901-0.0627 0.47779-0.14631 0.71448-0.25149l0.31528-0.14012zm-26.095 0.68144c-0.22472 0.14273-0.42342 0.29321-0.67087 0.42797-0.01299 7e-3 -0.02603 0.0167-0.03901 0.0238l-0.0195-0.37443zm-32.324 3.4323c-0.26273 0.41474-0.5012 0.85026-0.71317 1.3037-0.2266-0.3337-0.48218-0.62315-0.73828-0.85791l-3e-3 -3e-3c-0.0023-2e-3 -0.0044-4e-3 -0.0066-6e-3l-0.27165-0.25281zm82.927 3.5906c0.5692 0 0.92534 0.6273 0.92534 0.81926 0 0.0919 0.0657-4.9e-4 -0.11104 0.24984-0.16195 0.22942-0.79469 0.49578-0.88337 0.53867-0.0146-0.057-0.90746-0.50811-1.0251-0.73597-0.0179-0.0346-0.0318-0.0601-0.0419-0.0783 0.011-0.0406 0.0489-0.12198 0.16061-0.26505 0.21024-0.26942 0.86195-0.52844 0.97557-0.52844zm-1.1398 0.81398c2e-3 3e-3 3e-3 5e-3 4e-3 7e-3l3.3e-4 3.4e-4h6.6e-4c-1.2e-4 2e-3 -5.1e-4 4e-3 -2e-3 5e-3l-3.3e-4 3.3e-4 -3.3e-4 3.4e-4v3.2e-4h-3.2e-4l-3.4e-4 3.3e-4h-3.3e-4l-3.4e-4 -3.3e-4h-3.2e-4l-3.3e-4 -3.2e-4v-3.4e-4l-3.4e-4 -3.3e-4 -3.2e-4 -3.4e-4c-6.4e-4 -2e-3 -2e-3 -6e-3 -2e-3 -0.0113zm-31.622 0.61732c0.56919 0 0.92566 0.6286 0.92566 0.82058 0 0.0919 0.06434-2e-3 -0.11236 0.24851-0.16193 0.2294-0.79348 0.4969-0.88204 0.54-0.01498-0.0571-0.90782-0.50816-1.0255-0.73597-0.01816-0.0352-0.03171-0.061-0.04192-0.0793 0.0113-0.041 0.04953-0.12268 0.16094-0.26537 0.21024-0.26942 0.86162-0.52843 0.97523-0.52843zm-39.55 0.48579c0.56918 0 0.92566 0.62895 0.92566 0.82092 0 0.0919 0.06435-2e-3 -0.11236 0.24851-0.16193 0.2294-0.79347 0.49657-0.88204 0.53967-0.01496-0.0572-0.90782-0.50816-1.0255-0.73597-0.01814-0.0351-0.0317-0.0607-0.04197-0.079 0.01149-0.0408 0.04997-0.12216 0.16094-0.26437 0.21024-0.26942 0.86162-0.52977 0.97524-0.52977zm38.409 0.32983c0.0017 3e-3 0.0033 5e-3 0.0042 7e-3h9.96e-4v-3.3e-4h3.26e-4c-7.5e-5 2e-3 -6.36e-4 4e-3 -0.0017 5e-3v3.3e-4l-3.35e-4 3.3e-4 -3.26e-4 3.4e-4h-3.35e-4l-3.35e-4 3.2e-4 -3.26e-4 -3.2e-4h-3.26e-4l-3.35e-4 -3.4e-4 -3.26e-4 -3.3e-4v-3.3e-4l-3.35e-4 -3.3e-4c-6.36e-4 -2e-3 -0.0017-6e-3 -0.0017-0.011zm-39.55 0.4858c0.0015 3e-3 0.0031 5e-3 0.0039 7e-3h3.31e-4l3.31e-4 3.3e-4h3.3e-4v-6.6e-4h3.31e-4c-7.9e-5 3e-3 -1e-3 5e-3 -0.0017 6e-3v3.4e-4h-3.31e-4l-3.31e-4 3.3e-4h-9.91e-4v-3.3e-4h-3.3e-4l-3.32e-4 -3.4e-4v-3.2e-4c-7.8e-5 -1.4e-4 -5.87e-4 -6.4e-4 -6.39e-4 -2e-3 -7.04e-4 -2e-3 -1e-3 -6e-3 -6.39e-4 -0.0105zm-60.569 7.7923c-0.054371 0.0456-0.2442 0.0538-0.51918 0.0766 0.17247-0.0211 0.34636-0.0625 0.51918-0.0766z" fill="#d35f8d" stop-color="#000000" style="paint-order:markers stroke fill"/>
  <path d="m16.387 84.862-7.5378 0.15565-0.17813 0.01322c-2.637 0.19903-4.3494 2.3428-4.3679 4.7103l-6.395e-4 0.06015 0.14508 6.1693-2.9845 0.07105-0.41607-5.5127c-0.19905-2.637-2.4279-4.554-5.0649-4.355l-7.4754 0.56412c-2.637 0.19903-4.5527 2.4292-4.3537 5.0662l2.1702 28.757c0.19902 2.637 2.4278 4.554 5.0649 4.355l7.4754-0.56412c2.637-0.19903 4.5527-2.4292 4.3537-5.0662l-0.55256-7.322 2.1623-0.0617 0.13781 6.8864 0.00793 0.10575c0.1732 2.2949 2.0133 4.165 4.2962 4.3834-0.1605 0.41333-0.28287 0.84286-0.36452 1.2816-0.80531 0.0366-1.6175 0.0967-2.3986 0.15798-0.70429 0.0552-1.3361 0.12015-1.8219 0.17317l-0.088237 0.0105-0.087906 0.0132c-0.77521 0.12114-1.536 0.42359-2.2525 1.0866-0.19889 0.18403-0.3904 0.4079-0.56313 0.66128-1.0246-1.2662-2.6865-1.7396-4.0847-1.4686l-0.010245 2e-3 -0.00991 2e-3c-1.5811 0.31469-3.3435 0.92874-4.9591 1.5076-0.66505 0.2383-1.2567 0.46604-1.7115 0.64477l-0.082619 0.0324-0.080967 0.0371c-0.71623 0.32048-1.3714 0.81061-1.8887 1.6385-0.51725 0.82789-0.80489 2.1309-0.48646 3.2939l0.56578 2.1563 0.0661 0.18442c0.29465 0.82236 0.83233 1.4446 1.462 1.9323-0.20528 0.60338-0.32707 1.2277-0.22538 1.8414l0.31098 2.2674 0.13021 0.36319c0.012952 0.0411 4.129e-4 0.0423 0.015202 0.0836 0.64885 1.811 1.7846 2.1934 2.3765 2.4402 0.59186 0.24679 1.0103 0.32098 1.4234 0.38434 0.82618 0.12672 1.6059 0.13812 2.4792 0.0988 1.7466-0.0786 3.7799-0.39237 5.8355-1.1289 0.49451-0.17718 0.92759-0.2846 1.6983-0.7439 0.011255-7e-3 0.022517-0.0133 0.034041-0.0202 0.50645 0.1759 1.0243 0.31261 1.5869 0.43887 1.2027 0.26987 2.5737 0.46494 4.0407 0.49671 0.14818 0.76505 0.55421 1.5504 0.95739 2.0109 0.37404 0.42728 0.68879 0.6355 0.68574 0.63153 4.3681 3.4094 9.6971 4.011 13.223 0.92435 0.56856-0.49773 1.0621-1.1162 1.4455-1.809l0.4012 1.2062 0.02115 0.0578c0.79217 2.1505 3.2488 3.2962 5.32 2.7234l0.10113-0.0278 5.0292-1.6937c2.38e-4 -8e-5 4.24e-4 -2.5e-4 6.4e-4 -3.3e-4l0.05023-0.0169-0.03536 0.011c1.2349-0.40674 2.0881-1.4289 2.5599-2.5737 0.98755 0.29417 2.0285 0.59392 2.6108 0.77991 0.74031 0.24385 1.582 0.39463 2.6947 0.0869 1.7321-0.47902 2.7895-2.1098 3.1091-2.9617l0.01586-0.0447 0.09485-0.27297c2.1777 1.9376 5.0559 3.078 8.0259 3.078 2.8442 0 5.707-0.95357 8.1925-2.8616 0.11626-0.0892 0.23172-0.18151 0.34601-0.27627 0.24785 2.2284 2.2762 3.9297 4.3894 3.9297h0.10608l5.2922-0.29148c4.42e-4 -2e-5 6.39e-4 2e-5 0.0013 0l0.05749-3e-3 -0.03965 2e-3c1.3004-0.0615 2.3964-0.81978 3.157-1.7984 0.87341 0.54675 1.7967 1.113 2.3084 1.4475 0.64866 0.43247 1.4201 0.80173 2.5744 0.80173 1.7972 0 3.2504-1.29 3.7856-2.0258l0.02778-0.0387 1.5523-2.2515c2.1487 1.8176 4.9309 2.8808 7.7989 2.8808 2.8442 0 5.707-0.95457 8.1925-2.8626 0.3002-0.23045 0.59471-0.4796 0.88007-0.74621 0.60385 2.0039 2.7927 3.3468 4.5771 3.2132l0.10576-8e-3 5.2893-0.69168-0.043 4e-3c2.2919-0.26311 4.0289-2.3395 3.8553-4.6577l-0.0115-0.15565-0.11996-0.93029c2.1755 3.3194 6.0218 5.403 10.036 5.403 2.8442 0 5.708-0.9549 8.1935-2.8629 2.4855-1.908 4.5629-5.093 4.5629-8.9493 0-2.6397-0.88574-5.4229-2.9039-7.7602-0.20113-0.23292-0.41515-0.45949-0.64114-0.67847l4.0933-3.5087c2.7023-2.3163 3.0262-6.5262 0.70987-9.2285l-5.5728-6.5021c-1.0918-1.2738-2.6042-2.0187-4.1812-2.2079-8e-3 -0.1209-0.0172-0.24015-0.0264-0.35625-0.0331-0.41524 0.0964-0.72412-0.41474-1.8863-0.22416-0.50964-0.77971-1.199-1.4422-1.6768-0.76826-2.0388-2.0981-3.751-3.7172-4.8332-1.7563-1.174-3.7081-1.5922-5.6478-1.7033-0.71857-1.7801-2.4942-2.8058-4.2598-2.665l-3.2621 0.26042c-2.1382 0.17059-3.6839 2.0075-3.8448 3.9981-0.31287 0.16189-0.64169 0.32183-0.86155 0.52579-0.61417 0.56975-0.75069 0.92271-0.80404 1.0116l-0.0585 0.09617-1.5027 2.8728-0.07 0.17449c-0.12952 0.32048-0.38458 1.037-0.31197 1.9472 0.0406 0.50875 0.24472 1.0022 0.52877 1.4597-0.17796 0.0541-0.35684 0.12081-0.53637 0.20059l-0.19267 0.0853-0.15135 0.0836c0.0867-0.0484-2.4624 1.2842-2.4624 1.2842l-0.0419 0.0228-0.0407 0.0224c-0.21291 0.11665-1.0822 0.43053-1.7826 1.7829-0.1679 0.32419-0.13455 0.65677-0.19961 0.99374-0.79409-0.11087-1.6221-0.0678-2.4373 0.29445l-0.0205 9e-3 -2.6666 1.2238c-0.05263-0.12286-0.12448-0.27369-0.22373-0.46365-0.02083-0.0399-0.06744-0.0565-0.08957-0.0955 1.1654-1.2586 2.0283-2.831 2.2264-4.5067 0.20394-1.7246-0.27567-3.3159-0.91376-4.5368-0.4797-0.91784-1.8678-3.4322-4.9006-5.3861-3.0327-1.9539-8.0296-2.7683-13.098-0.11963-3.1905 1.6675-5.5772 3.9276-7.0917 6.4558-1.0159-1.3239-2.2423-2.458-3.6247-3.3514-3.4956-2.259-7.8614-3.0604-12.349-2.4462v-3.3e-4c-1.3447 0.18404-2.6851 0.56575-4.0292 0.99539l-4.0341 0.33246-0.17449 0.02412c-1.207 0.16519-2.1551 0.70251-2.8196 1.4558-0.42205-0.12316-0.84035-0.19269-1.231-0.22274l0.03734 0.0026-6.5537-0.56842h-0.35115c-0.28434 0-0.6728 0.12836-1.0228 0.19465-1.58-0.50404-3.2573-0.85924-5.0698-0.85924-4.217 0-7.7477 1.779-10.108 4.2126l-0.19623-8.6182-0.0076-0.09947c-0.1801-2.387-2.1095-4.5108-4.8434-4.4044zm77.537 26.147v3.3e-4l-0.0033 2e-3c0.0017-6.4e-4 0.0017-2e-3 0.0033-3e-3zm-49.121 16.235c-0.0053 7e-3 -0.01063 0.0135-0.01586 0.0202l-0.01785-0.0165zm11.712 6.4026c-0.0173 0.0172-0.0347 0.0346-0.05222 0.0515-0.0034 3e-3 -0.0083 8e-3 -0.01388 0.0129 0.02304-0.028 0.04524-0.0625 0.0661-0.0644zm-61.107 7.5325c-0.054371 0.0456-0.2442 0.0538-0.51918 0.0766 0.17247-0.0211 0.34636-0.0625 0.51918-0.0766z" fill="#fff" stop-color="#000000" style="paint-order:markers stroke fill"/>
  <g transform="matrix(.63951 0 0 .63951 -5.7179 30.591)">
   <path d="m38.84 149.37 176.21-18.714" fill="none" stroke="#f59" stroke-linecap="square" stroke-width=".989" style="paint-order:markers stroke fill"/>
   <g fill="#ac93a7" stroke-linecap="square">
    <path transform="rotate(-23.96)" d="m120.57 194.04c0.34366 0 0.57276-0.17183 0.57276-0.6014 0-0.25775-0.20047-3.408-0.25774-3.8089-0.0286-0.48685-0.11456-0.68732-0.60141-0.68732-0.54412 0-1.4319-0.0286-2.5488-0.0286l-0.0859-1.4033c0.3723 0 0.68732-0.25775 0.71596-0.63004l0.34366-3.8948v-0.11456c0-0.34366-0.25775-0.6014-0.63005-0.65868l-0.83051-0.0573c-0.11455-1.1455-0.25774-2.2338-0.37229-3.2075-0.0573-0.40094-0.3723-0.77324-0.80188-0.77324h-0.0573c-0.63005 0.0573-4.5249 0.28639-4.5249 0.28639-0.34365 0.0286-0.6014 0.0859-0.6014 0.63004 0 0.0573 0.0286 0.14319 0.0286 0.25774 0.0859 0.63005 0.17183 1.4033 0.25774 2.2911l-4.6394-0.40094h-0.0573c-0.34366 0-0.65868 0.28638-0.68732 0.63004l-0.34366 3.8948v0.11456c0 0.34366 0.25775 0.6014 0.63005 0.63004l5.5272 0.48685c0.0573 0.85915 0.11455 1.6897 0.14319 2.4915-2.062 0.40094-6.6727 1.3746-6.6727 6.0713 0 2.9498 2.2051 5.7849 6.2145 5.7849 2.692 0 5.6417-1.3746 6.3577-4.9544 0.14319-0.74459 0.25774-1.5178 0.31502-2.3483zm-17.183 1.5751c0.34366-0.0573 0.54412-0.3723 0.54412-0.71596v-0.0573c-0.28638-3.8948-0.48685-14.09-0.48685-14.09 0-0.3723-0.34366-0.68732-0.71596-0.68732l-4.8971 0.0573c-0.3723 0-0.65868 0.34366-0.65868 0.71596 0.08591 7.761 0.48685 12.4 0.94506 14.835 0.08591 0.34366 0.40094 0.57277 0.71596 0.57277h0.11455zm8.6774-0.94507c-0.14319 1.2887-0.77323 1.7183-1.346 1.7183-0.51549 0-0.91643-0.45821-0.91643-0.9737 0-0.3723 0.20047-1.2028 2.2911-1.5465 0 0.31502-0.0286 0.63004-0.0286 0.80187z" stroke-width=".74339" style="paint-order:markers stroke fill" aria-label="は"/>
    <path transform="rotate(-4.5614)" d="m184.69 137.84c0.62789 0 0.91044-0.37674 0.91044-1.0046l0.0628-14.41c0.94184-0.40813 1.7895-0.5651 2.6371-0.5651 2.2604 0 4.6464 1.2558 4.9918 4.4894-4.8348 0-6.6243 3.1708-6.6243 5.9336 0 4.3324 4.0499 5.2429 5.6196 5.2429 2.9511 0 5.9336-2.0092 6.844-5.0859 0.34534 0.0628 0.87905 0.0628 1.5069 0.0942 0.43953 0 0.65929-0.12558 0.69068-0.72207 0.0628-0.84766 0.15698-3.0139 0.15698-4.3638 0-1.0674-0.0628-1.2244-0.43953-1.2872-0.40813-0.0628-0.97323-0.0942-1.3186-0.12558-0.0942-6.9068-5.7766-10.14-11.239-10.14-0.97323 0-1.9151 0.0942-2.8255 0.28256v-3.8929c0-0.37673-0.34534-0.65928-0.72208-0.65928h-5.1173c-0.37673 0-0.69068 0.31394-0.69068 0.72207l-0.0314 5.3685c-1.0046-0.40813-2.6999-1.0046-3.1709-1.0046-0.25115 0-0.34534 0.12558-0.50231 0.34534l-2.4488 3.8929c-0.0628 0.12558-0.0942 0.21977-0.0942 0.31395 0 0.18837 0.0942 0.31395 0.25115 0.40813l3.4534 1.6325c-0.37674 0.5965-3.5162 5.8708-3.5162 6.4045 0 0.21976 0.12558 0.50231 0.50232 0.72207 0.94183 0.53371 2.6058 1.2872 3.5162 1.8209 0.21976 0.15697 0.43953 0.21976 0.62789 0.21976 0.25116 0 0.43953-0.15697 0.56511-0.40813 0.25115-0.59649 0.53371-1.193 0.81626-1.7895v6.5301c0 0.87905 0.31394 1.036 0.69068 1.036zm8.7905-7.0952c-0.0942 1.2558-0.97323 2.0406-1.7267 2.0406-0.50231 0-0.97323-0.40813-0.97323-1.036 0-0.72208 1.036-1.036 2.0406-1.036 0.21976 0 0.43952 0 0.65928 0.0314z" stroke-width=".81495" style="paint-order:markers stroke fill" aria-label="ね"/>
    <g stroke-width=".57436">
     <path transform="rotate(-19.712)" d="m-43.968 159.56v-0.0443c0-0.26552-0.19914-0.55317-0.48678-0.55317-3.7615-0.0443-8.6072-0.55316-11.838-1.5931-0.04425-0.0221-0.11063-0.0221-0.15489-0.0221-0.24339 0-0.44253 0.15489-0.48678 0.39828l-0.64167 3.0535c0 0.0443-0.02213 0.0664-0.02213 0.11063 0 0.97357 5.6202 3.0314 10.886 3.0314 1.5267 0 2.3233-0.0443 2.3675-0.5753zm-1.4382-12.037v-0.0442c0-0.26552-0.22127-0.48679-0.50891-0.53104-1.6374-0.2434-4.6687-0.3319-7.2133-0.3319-1.0178 0-1.9471 0.0221-2.6773 0.0443-0.28765 0.0221-0.55316 0.19914-0.57529 0.48679l-0.28765 3.2747v0.0443c0 0.26552 0.22127 0.53103 0.50891 0.53103 2.1684 0.0664 7.2133 0.30978 9.8906 0.39828 0.28765 0 0.55316-0.19914 0.57529-0.48678z" style="paint-order:markers stroke fill" aria-label="こ"/>
     <path transform="rotate(-4.4882)" d="m16.697 167.18v-0.0443c0-0.26552-0.19914-0.55316-0.48678-0.55316-3.7615-0.0443-8.6072-0.55317-11.838-1.5931-0.044253-0.0221-0.11063-0.0221-0.15489-0.0221-0.24339 0-0.44253 0.15489-0.48679 0.39828l-0.64167 3.0535c0 0.0443-0.022127 0.0664-0.022127 0.11064 0 0.97357 5.6202 3.0313 10.886 3.0313 1.5267 0 2.3233-0.0443 2.3675-0.57529zm-1.4382-12.037v-0.0443c0-0.26552-0.22127-0.48679-0.50891-0.53104-1.6374-0.24339-4.6687-0.3319-7.2133-0.3319-1.0178 0-1.9471 0.0221-2.6773 0.0443-0.28765 0.0221-0.55316 0.19913-0.57529 0.48678l-0.28765 3.2747v0.0443c0 0.26552 0.22127 0.53104 0.50891 0.53104 2.1684 0.0664 7.2133 0.30977 9.8906 0.39828 0.28765 0 0.55316-0.19914 0.57529-0.48679z" style="paint-order:markers stroke fill" aria-label="こ"/>
     <path transform="rotate(48.801)" d="m149.67 82.702c1.5046-0.3319 2.7437-0.48679 3.7615-0.48679 2.279 0 3.3411 0.7523 3.3411 1.7701 0 1.4604-2.1684 3.4739-5.9963 4.6908-0.17701 0.04425-0.35402 0.24339-0.35402 0.50891 0 0.22127 1.0178 2.2127 1.1948 2.5667 0.17702 0.3319 0.35403 0.4204 0.53104 0.4204 0.11064 0 0.19914-0.02213 0.30977-0.04425 6.5052-1.2391 9.8463-5.3325 9.8463-8.7179 0-2.6994-2.1242-4.9564-6.461-4.9564-0.44253 0-0.92931 0.04425-1.4382 0.08851 0 0 0.0885-1.5489 0.17701-2.4339 0.0221-0.19914 0.0442-0.39828 0.0442-0.57529 0-1.7701-1.1284-2.1684-2.4782-2.1684-0.19914 0-0.4204 0-0.64167 0.02213-1.5931 0.08851-5.1334 0.26552-5.4653 0.26552-0.24339 0.02213-0.37615 0.17701-0.37615 0.55316 0 0.84081 0.0221 3.0092 0.0221 3.0092 0.0221 0.13276 0.11063 0.44253 0.55316 0.44253h0.0443c0.28765 0 1.571-0.08851 2.5003-0.15489h0.11063c0.50891 0 0.59742 0.26552 0.59742 0.7523 0 1.6152-0.17701 2.9207-0.24339 4.0049v0.04425c0 0.28765 0.19914 0.39828 0.35402 0.39828z" style="paint-order:markers stroke fill" aria-label="ろ"/>
    </g>
   </g>
   <g fill="#d40055" fill-rule="evenodd" stroke-linecap="square" stroke-width="3.3725">
    <path transform="rotate(-4.3161)" d="m25.269 141.03c0.75065 0 1.3858-0.57743 1.4436-1.3281l2.3674-45.039c0-0.75065-0.57742-1.4436-1.3281-1.4436l-11.606-0.63516h-0.11548c-0.75065 0-1.3281 0.63516-1.3858 1.3281l-0.80839 15.533-12.299-0.63517h-0.11548c-0.69291 0-1.3281 0.63517-1.3858 1.3281l-0.46194 10.105v0.11548c0 0.69291 0.57742 1.3281 1.3281 1.3858l12.299 0.57743-0.92387 16.63c0 0.75065 0.57742 1.3858 1.3281 1.4436zm-29.16-0.28872c0.75065 0 1.3858-0.63516 1.3858-1.3858v-45.097c0-0.75065-0.63516-1.3858-1.3858-1.3858h-11.722c-0.75065 0-1.3858 0.63516-1.3858 1.3858v45.097c0 0.75065 0.63516 1.3858 1.3858 1.3858z" style="paint-order:markers stroke fill" aria-label="H"/>
    <path d="m81.845 131.3c0.11548-0.23097 0.17323-0.4042 0.17323-0.51968 0-0.57742-0.63516-0.92388-1.2126-1.2126-1.8477-0.98161-2.4829-3.4645-2.4829-6.929 0-3.811 0.80839-8.8345 1.6168-14.089v-0.28871c0-0.69291-0.4042-1.4436-1.9055-1.559l-9.9894-0.86613h-0.28871c-0.6929 0-1.2126 0.17323-1.559 0.57742-2.2519-0.98162-5.0813-1.6168-7.9684-1.6168-11.433 0-16.341 9.9894-16.341 16.918 0 9.2965 8.3149 16.687 17.958 16.687 2.9448 0 6.0629-0.6929 9.0655-2.2519 2.8871 2.7139 6.9291 3.6378 7.5065 3.6378 0.75065 0 1.3281-0.51968 1.8477-1.5013zm-16.918-4.2152c-1.3281 0.57742-2.5984 0.80839-3.6955 0.80839-3.7532 0-6.0052-2.7716-6.0052-6.0052 0-2.9448 2.021-6.4671 5.6587-6.4671 1.6745 0 3.2336 0.80839 3.9265 1.9632-0.11548 1.7323-0.17323 3.2913-0.17323 4.7926 0 1.79 0.11548 3.4068 0.28871 4.9081z" style="paint-order:markers stroke fill" aria-label="a"/>
    <path transform="rotate(-7.7933)" d="m104.31 133.22c0-11.029-8.8923-18.189-20.614-18.189-2.0787 0-4.2152 0.23096-6.4671 0.6929l-6.4671-0.34645h-0.11548c-0.57742 0-1.0971 0.51968-1.1548 1.1548l-1.559 30.026c0 0.69291 0.46194 1.2126 1.1548 1.2703l11.548 0.57742h0.11548c0.57742 0 1.0971-0.51968 1.0971-1.0971l1.0971-20.96c4.2152 0.23097 7.16 2.7716 7.16 8.8345v1.9632c0 10.278 9.2387 13.338 10.278 13.338 0.51968 0 1.0971-0.17323 1.6745-0.63517 0 0 5.7165-4.0997 5.7165-4.2152 0.40419-0.28871 0.57742-0.63516 0.57742-0.98162 0-0.63516-0.57742-1.2126-0.92388-1.5013-2.3674-2.1942-3.1181-4.7926-3.1181-8.0262z" style="paint-order:markers stroke fill" aria-label="n"/>
    <path transform="rotate(-27.593)" d="m75.644 187.38c1.6745 0 2.4252-0.80839 2.8871-1.7323 0.86613-1.9632 2.3674-5.8897 2.3674-6.4671 0-0.98161-0.98162-1.5013-1.79-1.5013h-0.11548c-0.4042 0.0577-0.86613 0.0577-1.2703 0.0577-7.2178 0-10.22-4.6194-10.22-8.7191 0-3.58 2.3097-6.0052 5.0813-6.0052 2.4252 0 3.5223 1.8478 3.5223 2.3674 0 0.80839-0.4042 0.92387-3.4068 1.6168-0.75065 0.17322-1.2126 0.46194-1.2126 1.0971 0 0.23097 1.0971 3.9842 1.79 5.8897 0.23097 0.69291 0.51968 1.0971 1.4436 1.0971 3.0026-0.11548 7.2755-0.75064 9.9894-1.6745 3.4068-1.1548 4.5039-3.349 4.5039-6.0052 0-1.9055-0.63516-14.666-14.955-14.666-13.165 0-18.997 8.6613-18.997 16.918 0 8.7768 6.5826 17.727 19.69 17.727z" style="paint-order:markers stroke fill" aria-label="e"/>
   </g>
   <g fill="#fac" stroke-linecap="square" stroke-width="2.3957">
    <path transform="rotate(-15.459)" d="m33.276 182.9c0.20509-0.32815 0.28713-0.57426 0.28713-0.82036 0-1.5177-5.9886-5.9066-8.8599-6.809 2.4611-1.3536 4.7991-2.6252 5.8246-3.1174 0.49222-0.24611 0.73832-0.61527 0.73832-1.0254 0-0.24611-0.08204-0.49222-0.24611-0.73832l-3.4045-5.5374c-0.32814-0.53324-0.69731-0.69731-1.0254-0.69731-1.8048 0-8.8599 5.2503-10.542 6.5629l-0.9024-17.433c-0.04102-0.4512-0.36916-0.82036-0.82036-0.82036h-0.08204l-8.2036 0.41018c-0.41018 0.041-0.77934 0.41018-0.77934 0.82036v0.082l1.7228 33.512c0.041018 0.49222 0.4512 0.82036 0.9024 0.82036l8.2036-0.4512c0.49222 0 0.82036-0.41018 0.82036-0.90239l-0.36916-7.0141 0.24611-0.12305c0.82036-0.41018 2.7072-1.4356 4.7991-2.6252l-3.0353 3.6506c-0.20509 0.2461-0.28713 0.45119-0.28713 0.65628 0 0.36917 0.24611 0.69731 0.49222 0.86138 2.0919 1.3126 7.2192 4.471 9.4752 5.9476 0.24611 0.16407 0.49222 0.24611 0.69731 0.24611 0.41018 0 0.73832-0.24611 1.0665-0.69731z" style="paint-order:markers stroke fill" aria-label="k"/>
    <path d="m111.22 160.83c0-5.3323-3.8967-12.428-12.962-12.428-7.2192 0-13.536 4.3889-13.536 12.839 0 7.2192 5.8656 12.059 12.552 12.059 5.8246 0 13.946-4.471 13.946-12.469zm-12.962 4.635c-2.338 0-4.553-1.8868-4.553-4.7171 0-1.8458 0.98443-4.7581 4.4299-4.7581 4.1838 0 4.3479 3.9787 4.3479 4.7581 0 2.338-1.3126 4.7171-4.2249 4.7171z" style="paint-order:markers stroke fill" aria-label="o"/>
    <path d="m142.88 169.33c0.20509-0.32815 0.28713-0.57425 0.28713-0.82036 0-1.5177-5.9886-5.9066-8.8599-6.809 2.4611-1.3536 4.7991-2.6252 5.8246-3.1174 0.49222-0.24611 0.73833-0.61527 0.73833-1.0254 0-0.24611-0.082-0.49221-0.24611-0.73832l-3.4045-5.5374c-0.32815-0.53324-0.69731-0.69731-1.0254-0.69731-1.8048 0-8.8599 5.2503-10.542 6.5629l-0.9024-17.433c-0.041-0.4512-0.36916-0.82036-0.82036-0.82036h-0.082l-8.2036 0.41018c-0.41018 0.041-0.77934 0.41018-0.77934 0.82036v0.082l1.7228 33.512c0.041 0.49222 0.4512 0.82036 0.9024 0.82036l8.2036-0.45119c0.49221 0 0.82036-0.41018 0.82036-0.9024l-0.36916-7.0141 0.2461-0.12305c0.82036-0.41018 2.7072-1.4356 4.7991-2.6252l-3.0353 3.6506c-0.20509 0.24611-0.28713 0.4512-0.28713 0.65629 0 0.36916 0.24611 0.6973 0.49222 0.86137 2.0919 1.3126 7.2192 4.471 9.4752 5.9476 0.2461 0.16408 0.49221 0.24611 0.6973 0.24611 0.41018 0 0.73833-0.24611 1.0665-0.6973z" style="paint-order:markers stroke fill" aria-label="k"/>
    <path d="m173.06 160.07c0-5.3324-3.8967-12.428-12.962-12.428-7.2192 0-13.536 4.3889-13.536 12.839 0 7.2192 5.8656 12.059 12.552 12.059 5.8246 0 13.946-4.471 13.946-12.469zm-12.962 4.635c-2.338 0-4.553-1.8868-4.553-4.7171 0-1.8458 0.98443-4.7581 4.4299-4.7581 4.1838 0 4.3479 3.9788 4.3479 4.7581 0 2.338-1.3126 4.7171-4.2248 4.7171z" style="paint-order:markers stroke fill" aria-label="o"/>
   </g>
   <path transform="rotate(-4.2822)" d="m174.83 184.45c0.4512 0 0.82036-0.36916 0.82036-0.82036v-0.082l-0.77934-14.52c0.65629-0.16407 1.2305-0.24611 1.8048-0.24611 0.69731 0 1.3946 0.12306 2.0509 0.32815 0.16407 0.041 0.32814 0.082 0.4512 0.082 0.49221 0 0.90239-0.28712 1.0254-0.86137l1.1895-5.7835c0.041-0.20509 0.082-0.36916 0.082-0.53324 0-0.49221-0.24611-0.82036-0.86138-0.98443-1.2716-0.28712-2.6252-0.4512-4.0198-0.4512-2.0509 0-4.1838 0.32815-6.3988 1.0254l-4.7581 0.24611c-0.4512 0-0.82036 0.41018-0.82036 0.9024l1.1485 21.329c0 0.49221 0.41018 0.82036 0.9024 0.82036z" fill="#dc143c" stroke-linecap="square" stroke-width="2.3957" style="paint-order:markers stroke fill" aria-label="r"/>
   <path d="m224.29 157.83c0-5.3323-3.8967-12.428-12.962-12.428-7.2192 0-13.536 4.3889-13.536 12.839 0 7.2192 5.8656 12.059 12.552 12.059 5.8246 0 13.946-4.471 13.946-12.469zm-12.962 4.635c-2.338 0-4.553-1.8868-4.553-4.7171 0-1.8458 0.98443-4.7581 4.4299-4.7581 4.1838 0 4.3479 3.9787 4.3479 4.7581 0 2.338-1.3126 4.7171-4.2248 4.7171z" fill="#dc143c" stroke-linecap="square" stroke-width="2.3957" style="paint-order:markers stroke fill" aria-label="o"/>
   <rect transform="rotate(-40.601)" x="67.319" y="228.22" width="21.858" height="21.858" rx="4.2333" ry="4.2333" fill="#d35f5f" style="paint-order:markers stroke fill"/>
   <path transform="matrix(.1159 -.09007 .09007 .1159 -70.427 91.148)" d="m344.11 732.73c-5.616-14.256-16.56-20.448-27.648-20.448-16.128 0-32.256 12.96-32.256 33.552 0 37.584 49.248 43.92 60.192 81.792 10.8-37.584 60.192-44.208 60.192-81.792 0-20.592-16.704-33.552-32.832-33.552-11.232 0-22.176 6.192-27.216 20.448z" fill="#bc5fd3" stroke-linecap="square" stroke-width="3.738" style="paint-order:markers stroke fill;white-space:pre" aria-label="♥"/>
  </g>
 </g>
</svg>
